<?xml version="1.0" encoding="UTF-8"?>
<svg version="1.1" xmlns="http://www.w3.org/2000/svg" width="355" height="405">
<path d="M0 0 C4 4.82051282 4 4.82051282 4 8 C4.99 8.33 5.98 8.66 7 9 C7.9921875 11.21166992 7.9921875 11.21166992 9 14 C10.01053216 15.88809058 11.05522123 17.75811693 12.125 19.61328125 C12.74383057 20.68787598 13.36266113 21.7624707 14.00024414 22.86962891 C14.99012329 24.5738501 14.99012329 24.5738501 16 26.3125 C16.3386911 26.8977948 16.6773822 27.4830896 17.02633667 28.08612061 C21.29713727 35.46500923 25.65813391 42.77224098 30.23388672 49.96679688 C34.46582441 56.65659989 38.41662925 63.50646088 42.38891602 70.35253906 C47.0510257 78.38505349 51.76177358 86.38725697 56.5 94.375 C57.15822754 95.48528564 57.81645508 96.59557129 58.49462891 97.73950195 C63.36258843 105.94291522 68.25245969 114.13219047 73.2109375 122.28125 C74.265625 124.02083333 75.3203125 125.76041667 76.375 127.5 C77.19291016 128.83804688 77.19291016 128.83804688 78.02734375 130.203125 C78.54167969 131.05390625 79.05601562 131.9046875 79.5859375 132.78125 C80.0504834 133.54501953 80.5150293 134.30878906 80.99365234 135.09570312 C82 137 82 137 82 139 C82.66 139.33 83.32 139.66 84 140 C85.24268256 142.00855647 86.41840606 144.058697 87.5625 146.125 C88.27585288 147.40057448 88.99075287 148.67528474 89.70703125 149.94921875 C90.08037598 150.61356934 90.4537207 151.27791992 90.83837891 151.96240234 C93.10477486 155.93788377 95.48356692 159.84610664 97.85375977 163.76025391 C100.29915191 167.80591067 102.6681393 171.88773214 105 176 C108.45707872 170.25759711 111.90671096 164.51077865 115.34863281 158.75927734 C116.41479719 156.97781817 117.48179462 155.19685717 118.54980469 153.41650391 C119.95451194 151.07206706 121.35318366 148.72414449 122.75 146.375 C123.17974121 145.65965088 123.60948242 144.94430176 124.05224609 144.20727539 C126.24585802 140.83575375 126.24585802 140.83575375 127 137 C127.63035156 136.38125 127.63035156 136.38125 128.2734375 135.75 C130.57204262 133.42019209 131.99342213 130.8326969 133.625 128 C134.54152344 126.4221875 134.54152344 126.4221875 135.4765625 124.8125 C137.08244243 122.04231492 137.08244243 122.04231492 138 119 C138.66 119 139.32 119 140 119 C140.08701172 118.47672119 140.17402344 117.95344238 140.26367188 117.41430664 C141.27226011 114.10730098 143.01061844 111.31414335 144.78125 108.37109375 C145.15479614 107.74018326 145.52834229 107.10927277 145.91320801 106.45924377 C147.10406532 104.44913571 148.30151759 102.44306962 149.5 100.4375 C150.69771504 98.42792553 151.89393212 96.41750505 153.08679199 94.40504456 C153.82832892 93.15450566 154.57277272 91.90568486 155.32043457 90.65879822 C156.82975654 88.1176688 158.06153635 85.81539095 159 83 C159.66 83 160.32 83 161 83 C161.24492187 82.3296875 161.48984375 81.659375 161.7421875 80.96875 C163.28824032 77.31968124 165.16773736 73.94175454 167.125 70.5 C167.52170898 69.7980249 167.91841797 69.0960498 168.32714844 68.37280273 C171.50186747 62.7917881 174.8379564 57.3278849 178.234375 51.87890625 C179.72534298 49.44783677 181.13675915 47.00381902 182.5 44.5 C185.80372066 38.5533028 189.43468198 32.79364179 193 27 C153.07 27 113.14 27 72 27 C76.73760638 36.57824537 76.73760638 36.57824537 83 45 C83 45.99 83 46.98 83 48 C84.0621019 47.97787697 84.0621019 47.97787697 85.1456604 47.95530701 C91.88117732 47.81615681 98.61679304 47.683254 105.35256386 47.5570364 C108.81389562 47.49196506 112.27515027 47.42463879 115.73632812 47.35180664 C119.73295614 47.26781319 123.72972152 47.19426207 127.7265625 47.12109375 C128.94485748 47.09405869 130.16315247 47.06702362 131.41836548 47.03916931 C139.68030058 46.89848228 147.76933073 47.28320424 156 48 C153.85146572 54.57661315 153.85146572 54.57661315 152.08984375 57.54296875 C151.56487305 58.44112305 151.56487305 58.44112305 151.02929688 59.35742188 C150.48885742 60.26331055 150.48885742 60.26331055 149.9375 61.1875 C147.11129079 65.91890802 147.11129079 65.91890802 145 71 C144.34 71 143.68 71 143 71 C142.67 71.99 142.34 72.98 142 74 C128.14 74.33 114.28 74.66 100 75 C106.46816147 86.01891535 106.46816147 86.01891535 113 97 C113 97.66 113 98.32 113 99 C113.66 99 114.32 99 115 99 C115.89690912 100.55002751 116.7668197 102.11569918 117.625 103.6875 C118.11226562 104.55761719 118.59953125 105.42773438 119.1015625 106.32421875 C120.25856717 109.77008048 119.50673481 110.75906475 118 114 C116.13295673 117.50315247 114.09043032 120.90046504 112.0625 124.3125 C111.25522461 125.70952148 111.25522461 125.70952148 110.43164062 127.13476562 C109.90892578 128.01455078 109.38621094 128.89433594 108.84765625 129.80078125 C108.37336182 130.60684814 107.89906738 131.41291504 107.41040039 132.2434082 C106.94496826 132.8230835 106.47953613 133.40275879 106 134 C105.01 134 104.02 134 103 134 C101.66141476 131.71125827 100.32898986 129.41930344 99 127.125 C98.6184375 126.47402344 98.236875 125.82304687 97.84375 125.15234375 C95 120.2265625 95 120.2265625 95 118 C94.34 118 93.68 118 93 118 C92.54173828 117.01386719 92.54173828 117.01386719 92.07421875 116.0078125 C88.38629373 108.34108387 84.1433265 101.16215425 79.6081543 93.96923828 C79.1419165 93.22399902 78.67567871 92.47875977 78.1953125 91.7109375 C77.56133545 90.71006104 77.56133545 90.71006104 76.91455078 89.68896484 C76 88 76 88 76 86 C75.34 86 74.68 86 74 86 C73.70609375 85.36578125 73.4121875 84.7315625 73.109375 84.078125 C68.44703347 74.37831101 62.87485417 65.2623801 57.26806641 56.08642578 C56.24924819 54.41010301 55.25193255 52.72072061 54.26171875 51.02734375 C53.03233552 48.88119042 53.03233552 48.88119042 51 47 C50.17251159 45.43508994 49.38551309 43.8485307 48.625 42.25 C47.13465534 39.18970769 45.63160343 36.29508108 43.6875 33.5 C42 31 42 31 42 29 C41.34 28.67 40.68 28.34 40 28 C39 26.22265625 39 26.22265625 38 24.0625 C36.81586997 21.51384512 36.01242841 20.01242841 34 18 C34 17.01 34 16.02 34 15 C33.34 15 32.68 15 32 15 C31.60167969 14.15115234 31.60167969 14.15115234 31.1953125 13.28515625 C30.84210938 12.55167969 30.48890625 11.81820312 30.125 11.0625 C29.77695313 10.33160156 29.42890625 9.60070312 29.0703125 8.84765625 C28.1315023 6.83667541 28.1315023 6.83667541 26 6 C26 4.02 26 2.04 26 0 C29.20647969 -1.60323984 32.69136365 -1.13289851 36.21292114 -1.12025452 C37.07217599 -1.12110894 37.93143083 -1.12196337 38.8167237 -1.12284368 C41.7126348 -1.1244984 44.60848872 -1.11897723 47.50439453 -1.11352539 C49.57362873 -1.11324349 51.64286303 -1.11340131 53.71209717 -1.1139679 C59.34403923 -1.11425576 64.97596015 -1.10836076 70.60789728 -1.10139394 C76.48826142 -1.09515862 82.36862599 -1.09455646 88.24899292 -1.09336853 C99.39079432 -1.09025574 110.53258595 -1.08204305 121.67438304 -1.07201904 C134.35616991 -1.06085628 147.03795723 -1.05534704 159.71974778 -1.05032361 C185.81317061 -1.0398604 211.90658476 -1.02226197 238 -1 C239.11160278 2.72210693 239.11160278 2.72210693 238.10717773 5.22314453 C237.63739502 6.01833496 237.1676123 6.81352539 236.68359375 7.6328125 C236.16603516 8.52226563 235.64847656 9.41171875 235.11523438 10.328125 C234.28475586 11.71257812 234.28475586 11.71257812 233.4375 13.125 C232.91091797 14.02476563 232.38433594 14.92453125 231.84179688 15.8515625 C230.24238609 18.57662959 228.62480775 21.29000952 227 24 C226.51877686 24.80268311 226.03755371 25.60536621 225.54174805 26.43237305 C224.56627626 28.05771839 223.59035112 29.6827917 222.61401367 31.30761719 C219.72396531 36.12859031 216.85387339 40.96141908 213.98608398 45.7956543 C213.2857758 46.97566136 212.58492738 48.15534796 211.88354492 49.3347168 C208.22756822 55.48243849 204.61826395 61.64566424 201.17358398 67.91479492 C199.07978635 71.63502076 196.81298127 75.24823704 194.5625 78.875 C190.49398499 85.47842381 186.63302918 92.14544981 183 99 C179.31578947 105.84210526 179.31578947 105.84210526 177 107 C176.29713697 108.65172812 175.63747156 110.32194987 175 112 C174.0289701 113.93150512 173.02799823 115.84820328 172 117.75 C171.484375 118.71421875 170.96875 119.6784375 170.4375 120.671875 C169 123 169 123 167 124 C166.27095914 125.64034193 165.61344757 127.31301918 165 129 C164.33333333 130.66666667 163.66666667 132.33333333 163 134 C162.34 134 161.68 134 161 134 C161 135.32 161 136.64 161 138 C160.03565572 139.03442744 159.02990161 140.03082372 158 141 C157.11397486 142.6180764 156.28356601 144.26739937 155.5 145.9375 C153.9280283 149.27793985 152.2125685 152.05605469 150 155 C149.67 155.99 149.34 156.98 149 158 C148.34 158 147.68 158 147 158 C146.76152344 158.8353125 146.52304688 159.670625 146.27734375 160.53125 C144.80126966 164.53967138 142.81831968 167.89214623 140.5625 171.5 C137.82390527 175.92285282 135.31581753 180.33546981 133 185 C132.17393601 186.28927745 131.3200085 187.56118197 130.4375 188.8125 C127.31477564 193.41357742 124.45765858 198.15473225 121.625 202.9375 C121.17181396 203.69587158 120.71862793 204.45424316 120.25170898 205.2355957 C119.83091064 205.95062256 119.4101123 206.66564941 118.9765625 207.40234375 C118.59580566 208.04679443 118.21504883 208.69124512 117.82275391 209.35522461 C116.8508757 210.99160274 116.8508757 210.99160274 117 213 C116.34 213 115.68 213 115 213 C115 214.32 115 215.64 115 217 C114.34 217.33 113.68 217.66 113 218 C111.70737693 220.24670201 110.56863353 222.55077842 109.4140625 224.87109375 C107.83509406 227.24827 106.62441202 227.97815447 104 229 C94.57301294 213.41158349 94.57301294 213.41158349 90.97265625 206.63671875 C89.98355235 204.81913253 89.98355235 204.81913253 88 203 C86.77611767 200.78409794 85.59601709 198.56211924 84.4375 196.3125 C81.17453659 190.06547196 77.68427264 184.00263214 73.97045898 178.01293945 C72.38093889 175.42510796 70.99407783 172.98413551 69.9296875 170.1328125 C69.62289062 169.42898438 69.31609375 168.72515625 69 168 C68.01 167.67 67.02 167.34 66 167 C65.28784901 165.01574059 64.6286833 163.01226284 64 161 C62.89479613 159.02679404 61.72680638 157.08749039 60.5 155.1875 C59.8915625 154.23230469 59.283125 153.27710938 58.65625 152.29296875 C57.2034417 149.90872123 57.2034417 149.90872123 55 149 C54.87625 148.2884375 54.7525 147.576875 54.625 146.84375 C53.82543611 143.20573432 52.0237672 140.55995545 50 137.5 C44.85573814 129.50711774 40.03686476 121.33446269 35.25 113.125 C34.70496826 112.19046997 34.70496826 112.19046997 34.14892578 111.23706055 C33.43272181 110.00898234 32.71653502 108.78089412 32.00036621 107.55279541 C29.21375544 102.77651402 26.42649015 98.0005511 23.609375 93.2421875 C23.15014648 92.46472168 22.69091797 91.68725586 22.21777344 90.88623047 C21.00890997 88.86855885 21.00890997 88.86855885 19 87 C18.02784375 85.33222462 17.09556486 83.64102009 16.1875 81.9375 C15.66027344 80.9578125 15.13304687 79.978125 14.58984375 78.96875 C13.80287109 77.49921875 13.80287109 77.49921875 13 76 C12.08790915 74.3100224 11.17169451 72.62225911 10.25 70.9375 C9.86328125 70.22464844 9.4765625 69.51179688 9.078125 68.77734375 C8.00049914 66.84193704 8.00049914 66.84193704 6 65 C4.77871768 62.96050788 3.59612201 60.89776322 2.43359375 58.82421875 C1.71424864 57.54947626 0.99400214 56.2752421 0.27294922 55.00146484 C-0.10065735 54.34112244 -0.47426392 53.68078003 -0.85919189 53.00042725 C-2.6959304 49.77967369 -4.57910243 46.58676416 -6.46484375 43.39453125 C-6.83308258 42.76980927 -7.20132141 42.14508728 -7.58071899 41.50143433 C-9.08545717 38.94892755 -10.59139201 36.39714285 -12.10083008 33.84741211 C-13.22470175 31.94793403 -14.34504202 30.04641071 -15.46484375 28.14453125 C-16.120896 27.03440674 -16.77694824 25.92428223 -17.45288086 24.78051758 C-19 22 -19 22 -20 19 C-20.66 18.67 -21.32 18.34 -22 18 C-23.05482257 16.24005148 -24.04632617 14.44174865 -25 12.625 C-26.57535054 9.63971073 -28.12601701 6.81097449 -30 4 C-30 2.68 -30 1.36 -30 0 C-26.31300513 -0.1984578 -22.62540378 -0.38178602 -18.9375 -0.5625 C-17.89916016 -0.61857422 -16.86082031 -0.67464844 -15.79101562 -0.73242188 C-5.07925427 -1.24250575 -5.07925427 -1.24250575 0 0 Z " fill="#E97426" transform="translate(73,102)"/>
<path d="M0 0 C66 0 132 0 200 0 C200 0.33 200 0.66 200 1 C174.36620219 1.13047619 148.73240394 1.26086571 123.09860516 1.39115143 C111.19700284 1.45164425 99.29540066 1.51216568 87.39379883 1.57275391 C77.02311873 1.62554851 66.65243835 1.67828998 56.28175765 1.73096704 C50.78810056 1.75887352 45.29444361 1.78680701 39.80078697 1.81480408 C34.63399412 1.84113452 29.46720091 1.86739414 24.30040741 1.89359856 C22.40046233 1.90324715 20.50051739 1.912922 18.60057259 1.92262459 C16.0135972 1.93583182 13.42662136 1.94894598 10.83964539 1.96203613 C10.0818671 1.96592708 9.32408881 1.96981803 8.54334754 1.97382689 C5.69552307 1.9881581 2.8478664 2 0 2 C0 1.34 0 0.68 0 0 Z " fill="#F48032" transform="translate(100,103)"/>
<path d="M0 0 C0.33 0.66 0.66 1.32 1 2 C2.0621019 1.97787697 2.0621019 1.97787697 3.1456604 1.95530701 C9.88117732 1.81615681 16.61679304 1.683254 23.35256386 1.5570364 C26.81389562 1.49196506 30.27515027 1.42463879 33.73632812 1.35180664 C37.73295614 1.26781319 41.72972152 1.19426207 45.7265625 1.12109375 C46.94485748 1.09405869 48.16315247 1.06702362 49.41836548 1.03916931 C57.68030058 0.89848228 65.76933073 1.28320424 74 2 C71.94642857 8.58928571 71.94642857 8.58928571 69 11 C69.66 8.69 70.32 6.38 71 4 C47.57 4 24.14 4 0 4 C0 2.68 0 1.36 0 0 Z " fill="#49403A" transform="translate(155,148)"/>
<path d="M0 0 C3.43022354 2.46272459 5.27472607 3.79341119 6 8 C6.66 8.33 7.32 8.66 8 9 C8.33333333 10.33333333 8.66666667 11.66666667 9 13 C9.66 13.33 10.32 13.66 11 14 C12.69382187 17.59090237 14.21910455 21.09552275 15 25 C14.34 24.67 13.68 24.34 13 24 C13 23.34 13 22.68 13 22 C12.01 21.67 11.02 21.34 10 21 C9.28784901 19.01574059 8.6286833 17.01226284 8 15 C6.89479613 13.02679404 5.72680638 11.08749039 4.5 9.1875 C3.8915625 8.23230469 3.283125 7.27710938 2.65625 6.29296875 C1.2034417 3.90872123 1.2034417 3.90872123 -1 3 C-0.67 2.01 -0.34 1.02 0 0 Z " fill="#644635" transform="translate(129,248)"/>
<path d="M0 0 C3.22269618 3.79817765 5.74520378 7.57391854 8 12 C7.67 12.66 7.34 13.32 7 14 C6.34 12.35 5.68 10.7 5 9 C4.34 9 3.68 9 3 9 C0.56839395 5.63316085 0 4.26649636 0 0 Z " fill="#614536" transform="translate(145,131)"/>
<path d="M0 0 C1.98 0.99 1.98 0.99 4 2 C4 2.66 4 3.32 4 4 C4.66 4 5.32 4 6 4 C6.33 3.01 6.66 2.02 7 1 C7.33 1.66 7.66 2.32 8 3 C6.625 5 6.625 5 5 7 C4.34 7 3.68 7 3 7 C0 2.61538462 0 2.61538462 0 0 Z " fill="#614D3B" transform="translate(174,324)"/>
<path d="M0 0 C3.35111834 2.23407889 4.81553956 3.26215824 5.8125 7.25 C5.874375 8.1575 5.93625 9.065 6 10 C3.66666667 7.66666667 1.33333333 5.33333333 -1 3 C-0.67 2.01 -0.34 1.02 0 0 Z " fill="#4E3E2F" transform="translate(129,248)"/>
<path d="M0 0 C0.33 1.32 0.66 2.64 1 4 C0.01 4.33 -0.98 4.66 -2 5 C-2.33 6.65 -2.66 8.3 -3 10 C-3.66 10 -4.32 10 -5 10 C-3.84414715 6.08788267 -2.64465038 3.1254959 0 0 Z " fill="#654934" transform="translate(222,204)"/>
<path d="M0 0 C3 1 3 1 3 1 Z " fill="#000000" transform="translate(179,177)"/>
<path d="" fill="#000000" transform="translate(0,0)"/>
<path d="" fill="#000000" transform="translate(0,0)"/>
<path d="" fill="#000000" transform="translate(0,0)"/>
<path d="M0 0 C2 1 2 1 2 1 Z " fill="#000000" transform="translate(249,214)"/>
<path d="" fill="#000000" transform="translate(0,0)"/>
<path d="" fill="#000000" transform="translate(0,0)"/>
<path d="M0 0 C2 1 2 1 2 1 Z " fill="#000000" transform="translate(95,201)"/>
<path d="M0 0 C2 1 2 1 2 1 Z " fill="#000000" transform="translate(225,192)"/>
<path d="" fill="#000000" transform="translate(0,0)"/>
<path d="M0 0 C2 1 2 1 2 1 Z " fill="#000000" transform="translate(224,164)"/>
<path d="" fill="#000000" transform="translate(0,0)"/>
<path d="M0 0 C2 1 2 1 2 1 Z " fill="#000000" transform="translate(227,148)"/>
<path d="" fill="#000000" transform="translate(0,0)"/>
<path d="" fill="#000000" transform="translate(0,0)"/>
<path d="" fill="#000000" transform="translate(0,0)"/>
<path d="" fill="#000000" transform="translate(0,0)"/>
<path d="" fill="#000000" transform="translate(0,0)"/>
<path d="" fill="#000000" transform="translate(0,0)"/>
<path d="" fill="#000000" transform="translate(0,0)"/>
<path d="" fill="#000000" transform="translate(0,0)"/>
<path d="" fill="#000000" transform="translate(0,0)"/>
<path d="" fill="#000000" transform="translate(0,0)"/>
<path d="" fill="#000000" transform="translate(0,0)"/>
<path d="" fill="#000000" transform="translate(0,0)"/>
<path d="" fill="#000000" transform="translate(0,0)"/>
<path d="" fill="#000000" transform="translate(0,0)"/>
<path d="" fill="#000000" transform="translate(0,0)"/>
<path d="" fill="#000000" transform="translate(0,0)"/>
<path d="" fill="#000000" transform="translate(0,0)"/>
<path d="" fill="#000000" transform="translate(0,0)"/>
<path d="" fill="#000000" transform="translate(0,0)"/>
<path d="" fill="#000000" transform="translate(0,0)"/>
<path d="" fill="#000000" transform="translate(0,0)"/>
<path d="" fill="#000000" transform="translate(0,0)"/>
<path d="" fill="#000000" transform="translate(0,0)"/>
<path d="" fill="#000000" transform="translate(0,0)"/>
<path d="" fill="#000000" transform="translate(0,0)"/>
<path d="" fill="#000000" transform="translate(0,0)"/>
<path d="" fill="#000000" transform="translate(0,0)"/>
<path d="" fill="#000000" transform="translate(0,0)"/>
<path d="" fill="#000000" transform="translate(0,0)"/>
<path d="" fill="#000000" transform="translate(0,0)"/>
<path d="" fill="#000000" transform="translate(0,0)"/>
<path d="" fill="#000000" transform="translate(0,0)"/>
<path d="" fill="#000000" transform="translate(0,0)"/>
<path d="" fill="#000000" transform="translate(0,0)"/>
<path d="" fill="#000000" transform="translate(0,0)"/>
<path d="" fill="#000000" transform="translate(0,0)"/>
<path d="" fill="#000000" transform="translate(0,0)"/>
<path d="" fill="#000000" transform="translate(0,0)"/>
<path d="" fill="#000000" transform="translate(0,0)"/>
<path d="" fill="#000000" transform="translate(0,0)"/>
<path d="" fill="#000000" transform="translate(0,0)"/>
<path d="" fill="#000000" transform="translate(0,0)"/>
<path d="" fill="#000000" transform="translate(0,0)"/>
<path d="" fill="#000000" transform="translate(0,0)"/>
<path d="" fill="#000000" transform="translate(0,0)"/>
<path d="" fill="#000000" transform="translate(0,0)"/>
<path d="" fill="#000000" transform="translate(0,0)"/>
<path d="" fill="#000000" transform="translate(0,0)"/>
<path d="" fill="#000000" transform="translate(0,0)"/>
<path d="" fill="#000000" transform="translate(0,0)"/>
<path d="" fill="#000000" transform="translate(0,0)"/>
<path d="" fill="#000000" transform="translate(0,0)"/>
<path d="" fill="#000000" transform="translate(0,0)"/>
<path d="" fill="#000000" transform="translate(0,0)"/>
<path d="" fill="#000000" transform="translate(0,0)"/>
<path d="" fill="#000000" transform="translate(0,0)"/>
<path d="" fill="#000000" transform="translate(0,0)"/>
<path d="" fill="#000000" transform="translate(0,0)"/>
<path d="" fill="#000000" transform="translate(0,0)"/>
<path d="" fill="#000000" transform="translate(0,0)"/>
<path d="" fill="#000000" transform="translate(0,0)"/>
<path d="" fill="#000000" transform="translate(0,0)"/>
<path d="" fill="#000000" transform="translate(0,0)"/>
<path d="" fill="#000000" transform="translate(0,0)"/>
<path d="" fill="#000000" transform="translate(0,0)"/>
<path d="" fill="#000000" transform="translate(0,0)"/>
<path d="" fill="#000000" transform="translate(0,0)"/>
<path d="" fill="#000000" transform="translate(0,0)"/>
<path d="" fill="#000000" transform="translate(0,0)"/>
<path d="" fill="#000000" transform="translate(0,0)"/>
<path d="" fill="#000000" transform="translate(0,0)"/>
<path d="" fill="#000000" transform="translate(0,0)"/>
<path d="" fill="#000000" transform="translate(0,0)"/>
<path d="" fill="#000000" transform="translate(0,0)"/>
<path d="" fill="#000000" transform="translate(0,0)"/>
<path d="" fill="#000000" transform="translate(0,0)"/>
<path d="" fill="#000000" transform="translate(0,0)"/>
<path d="" fill="#000000" transform="translate(0,0)"/>
<path d="" fill="#000000" transform="translate(0,0)"/>
<path d="" fill="#000000" transform="translate(0,0)"/>
<path d="" fill="#000000" transform="translate(0,0)"/>
<path d="" fill="#000000" transform="translate(0,0)"/>
<path d="" fill="#000000" transform="translate(0,0)"/>
<path d="" fill="#000000" transform="translate(0,0)"/>
<path d="" fill="#000000" transform="translate(0,0)"/>
<path d="" fill="#000000" transform="translate(0,0)"/>
<path d="" fill="#000000" transform="translate(0,0)"/>
<path d="" fill="#000000" transform="translate(0,0)"/>
<path d="" fill="#000000" transform="translate(0,0)"/>
<path d="" fill="#000000" transform="translate(0,0)"/>
<path d="" fill="#000000" transform="translate(0,0)"/>
<path d="" fill="#000000" transform="translate(0,0)"/>
<path d="" fill="#000000" transform="translate(0,0)"/>
<path d="" fill="#000000" transform="translate(0,0)"/>
<path d="" fill="#000000" transform="translate(0,0)"/>
<path d="" fill="#000000" transform="translate(0,0)"/>
<path d="" fill="#000000" transform="translate(0,0)"/>
<path d="" fill="#000000" transform="translate(0,0)"/>
<path d="" fill="#000000" transform="translate(0,0)"/>
<path d="" fill="#000000" transform="translate(0,0)"/>
<path d="" fill="#000000" transform="translate(0,0)"/>
<path d="" fill="#000000" transform="translate(0,0)"/>
<path d="" fill="#000000" transform="translate(0,0)"/>
<path d="" fill="#000000" transform="translate(0,0)"/>
<path d="" fill="#000000" transform="translate(0,0)"/>
<path d="" fill="#000000" transform="translate(0,0)"/>
<path d="" fill="#000000" transform="translate(0,0)"/>
<path d="" fill="#000000" transform="translate(0,0)"/>
<path d="" fill="#000000" transform="translate(0,0)"/>
<path d="" fill="#000000" transform="translate(0,0)"/>
<path d="" fill="#000000" transform="translate(0,0)"/>
<path d="" fill="#000000" transform="translate(0,0)"/>
<path d="" fill="#000000" transform="translate(0,0)"/>
<path d="" fill="#000000" transform="translate(0,0)"/>
<path d="" fill="#000000" transform="translate(0,0)"/>
<path d="" fill="#000000" transform="translate(0,0)"/>
<path d="" fill="#000000" transform="translate(0,0)"/>
<path d="" fill="#000000" transform="translate(0,0)"/>
<path d="" fill="#000000" transform="translate(0,0)"/>
<path d="" fill="#000000" transform="translate(0,0)"/>
<path d="" fill="#000000" transform="translate(0,0)"/>
<path d="" fill="#000000" transform="translate(0,0)"/>
<path d="" fill="#000000" transform="translate(0,0)"/>
<path d="" fill="#000000" transform="translate(0,0)"/>
<path d="" fill="#000000" transform="translate(0,0)"/>
<path d="" fill="#000000" transform="translate(0,0)"/>
<path d="" fill="#000000" transform="translate(0,0)"/>
<path d="" fill="#000000" transform="translate(0,0)"/>
<path d="" fill="#000000" transform="translate(0,0)"/>
<path d="" fill="#000000" transform="translate(0,0)"/>
<path d="" fill="#000000" transform="translate(0,0)"/>
<path d="" fill="#000000" transform="translate(0,0)"/>
<path d="" fill="#000000" transform="translate(0,0)"/>
<path d="" fill="#000000" transform="translate(0,0)"/>
<path d="" fill="#000000" transform="translate(0,0)"/>
<path d="" fill="#000000" transform="translate(0,0)"/>
<path d="" fill="#000000" transform="translate(0,0)"/>
<path d="" fill="#000000" transform="translate(0,0)"/>
<path d="" fill="#000000" transform="translate(0,0)"/>
<path d="" fill="#000000" transform="translate(0,0)"/>
<path d="" fill="#000000" transform="translate(0,0)"/>
<path d="" fill="#000000" transform="translate(0,0)"/>
<path d="" fill="#000000" transform="translate(0,0)"/>
<path d="" fill="#000000" transform="translate(0,0)"/>
<path d="" fill="#000000" transform="translate(0,0)"/>
<path d="" fill="#000000" transform="translate(0,0)"/>
<path d="" fill="#000000" transform="translate(0,0)"/>
<path d="" fill="#000000" transform="translate(0,0)"/>
<path d="" fill="#000000" transform="translate(0,0)"/>
<path d="" fill="#000000" transform="translate(0,0)"/>
<path d="" fill="#000000" transform="translate(0,0)"/>
<path d="" fill="#000000" transform="translate(0,0)"/>
<path d="" fill="#000000" transform="translate(0,0)"/>
<path d="" fill="#000000" transform="translate(0,0)"/>
<path d="" fill="#000000" transform="translate(0,0)"/>
<path d="" fill="#000000" transform="translate(0,0)"/>
<path d="" fill="#000000" transform="translate(0,0)"/>
<path d="" fill="#000000" transform="translate(0,0)"/>
<path d="" fill="#000000" transform="translate(0,0)"/>
<path d="" fill="#000000" transform="translate(0,0)"/>
<path d="" fill="#000000" transform="translate(0,0)"/>
<path d="" fill="#000000" transform="translate(0,0)"/>
<path d="" fill="#000000" transform="translate(0,0)"/>
<path d="" fill="#000000" transform="translate(0,0)"/>
<path d="" fill="#000000" transform="translate(0,0)"/>
<path d="" fill="#000000" transform="translate(0,0)"/>
<path d="" fill="#000000" transform="translate(0,0)"/>
</svg>
